{"title":"Kelly Rowland - Keep It Between Us (h264/mp4)","uid":7009192,"size":33786968,"categoryP":"video","categoryS":"music_videos","magnet":"?xt=urn:btih:daac9d76a0a39d108bd9d3e1525938b96baca4da&amp;dn=Kelly+Rowland+-+Keep+It+Between+Us+%28h264%2Fmp4%29&amp;tr=udp%3A%2F%2Ftracker.openbittorrent.com%3A80&amp;tr=udp%3A%2F%2Fopen.demonii.com%3A1337&amp;tr=udp%3A%2F%2Ftracker.coppersurfer.tk%3A6969&amp;tr=udp%3A%2F%2Fexodus.desync.com%3A6969","seeders":1,"leechers":0,"uploader":"MusicVideos-HQ","files":1,"time":1328376333,"description":"General\n\nComplete name : C:\\Users\\Josue\\Desktop\\Vids\\KellyRowland-KeepItBetweenUs-musicvideos-hq.net.mp4\nFormat : MPEG-4\nFormat profile : Base Media\nCodec ID : isom\nFile size : 32.2 MiB\nDuration : 4mn 19s\nOverall bit rate : 1 041 Kbps\nEncoded date : UTC 2012-02-03 17:00:38\nTagged date : UTC 2012-02-03 17:00:38\n\nVideo\nID : 1\nFormat : AVC\nFormat/Info : Advanced Video Codec\nFormat profile : &lt;a class=&quot;__cf_email__&quot; href=&quot;/cdn-cgi/l/email-protection&quot; data-cfemail=&quot;5810313f3018146b7668&quot;&gt;[email&amp;#160;protected]&lt;/a&gt;&lt;script cf-hash='f9e31' type=&quot;text/javascript&quot;&gt;\n/* &lt;![CDATA[ */!function(){try{var t=&quot;currentScript&quot;in document?document.currentScript:function(){for(var t=document.getElementsByTagName(&quot;script&quot;),e=t.length;e--;)if(t[e].getAttribute(&quot;cf-hash&quot;))return t[e]}();if(t&amp;&amp;t.previousSibling){var e,r,n,i,c=t.previousSibling,a=c.getAttribute(&quot;data-cfemail&quot;);if(a){for(e=&quot;&quot;,r=parseInt(a.substr(0,2),16),n=2;a.length-n;n+=2)i=parseInt(a.substr(n,2),16)^r,e+=String.fromCharCode(i);e=document.createTextNode(e),c.parentNode.replaceChild(e,c)}}}catch(u){}}();/* ]]&gt; */&lt;/script&gt;\nFormat settings, CABAC : Yes\nFormat settings, ReFrames : 2 frames\nCodec ID : avc1\nCodec ID/Info : Advanced Video Coding\nDuration : 4mn 19s\nBit rate mode : Variable\nBit rate : 976 Kbps\nMaximum bit rate : 1 885 Kbps\nWidth : 720 pixels\nHeight : 480 pixels\nDisplay aspect ratio : 16:9\nOriginal display aspect ratio : 16:9\nFrame rate mode : Constant\nFrame rate : 25.000 fps\nStandard : NTSC\nColor space : YUV\nChroma subsampling : 4:2:0\nBit depth : 8 bits\nScan type : Progressive\nBits/(Pixel*Frame) : 0.113\nStream size : 30.2 MiB (94%)\n\n\nAudio\nID : 2\nFormat : AAC\nFormat/Info : Advanced Audio Codec\nFormat profile : LC\nCodec ID : 40\nDuration : 4mn 19s\nBit rate mode : Variable\nBit rate : 60.2 Kbps\nMaximum bit rate : 78.6 Kbps\nChannel(s) : 2 channels\nChannel positions : Front: L R\nSampling rate : 44.1 KHz\nCompression mode : Lossy\nStream size : 1.86 MiB (6%) ","torrent":{"xt":"urn:btih:daac9d76a0a39d108bd9d3e1525938b96baca4da","amp;dn":"Kelly+Rowland+-+Keep+It+Between+Us+%28h264%2Fmp4%29","amp;tr":["udp%3A%2F%2Ftracker.openbittorrent.com%3A80","udp%3A%2F%2Fopen.demonii.com%3A1337","udp%3A%2F%2Ftracker.coppersurfer.tk%3A6969","udp%3A%2F%2Fexodus.desync.com%3A6969"],"infoHash":"daac9d76a0a39d108bd9d3e1525938b96baca4da","infoHashBuffer":{"type":"Buffer","data":[218,172,157,118,160,163,157,16,139,217,211,225,82,89,56,185,107,172,164,218]},"announce":[],"urlList":[]}}